<?xml version="1.0" encoding="UTF-8" standalone="no"?>
<!-- Created with Inkscape (http://www.inkscape.org/) -->

<svg
   width="1920"
   height="1200"
   viewBox="0 0 507.99999 317.5"
   version="1.1"
   id="svg1"
   inkscape:version="1.4.2 (1:1.4.2+202505120737+ebf0e940d0)"
   xml:space="preserve"
   sodipodi:docname="cover.svg"
   inkscape:export-filename="thumbnail.png"
   inkscape:export-xdpi="102.62627"
   inkscape:export-ydpi="102.62627"
   xmlns:inkscape="http://www.inkscape.org/namespaces/inkscape"
   xmlns:sodipodi="http://sodipodi.sourceforge.net/DTD/sodipodi-0.dtd"
   xmlns:xlink="http://www.w3.org/1999/xlink"
   xmlns="http://www.w3.org/2000/svg"
   xmlns:svg="http://www.w3.org/2000/svg"><sodipodi:namedview
     id="namedview1"
     pagecolor="#ffffff"
     bordercolor="#000000"
     borderopacity="0.25"
     inkscape:showpageshadow="2"
     inkscape:pageopacity="0.0"
     inkscape:pagecheckerboard="0"
     inkscape:deskcolor="#d1d1d1"
     inkscape:document-units="px"
     showguides="true"
     inkscape:zoom="0.45789844"
     inkscape:cx="944.53259"
     inkscape:cy="542.69676"
     inkscape:window-width="2560"
     inkscape:window-height="1371"
     inkscape:window-x="0"
     inkscape:window-y="32"
     inkscape:window-maximized="1"
     inkscape:current-layer="layer1" /><defs
     id="defs1"><rect
       x="805.20715"
       y="800.89165"
       width="2.3930835"
       height="13.401411"
       id="rect2" /><linearGradient
       id="linearGradient9"
       inkscape:collect="always"><stop
         style="stop-color:#373737;stop-opacity:1;"
         offset="0.0025184"
         id="stop9" /><stop
         style="stop-color:#ffffff;stop-opacity:1;"
         offset="0.44854283"
         id="stop12" /><stop
         style="stop-color:#ffffff;stop-opacity:1;"
         offset="0.54717606"
         id="stop13" /><stop
         style="stop-color:#ffa282;stop-opacity:1;"
         offset="0.87934113"
         id="stop11" /><stop
         style="stop-color:#ff632a;stop-opacity:1;"
         offset="1"
         id="stop10" /></linearGradient><linearGradient
       id="linearGradient4"
       inkscape:collect="always"><stop
         style="stop-color:#1a1a1a;stop-opacity:1;"
         offset="0"
         id="stop4" /><stop
         style="stop-color:#8d8d8d;stop-opacity:1;"
         offset="0.58323967"
         id="stop6" /><stop
         style="stop-color:#eeeeee;stop-opacity:1;"
         offset="0.88153183"
         id="stop7" /><stop
         style="stop-color:#ffffff;stop-opacity:1;"
         offset="1"
         id="stop5" /></linearGradient><linearGradient
       inkscape:collect="always"
       xlink:href="#linearGradient4"
       id="linearGradient5"
       x1="354.6375"
       y1="66.876458"
       x2="449.97174"
       y2="66.876458"
       gradientUnits="userSpaceOnUse"
       gradientTransform="rotate(133.4992,416.58536,72.669826)" /><linearGradient
       inkscape:collect="always"
       xlink:href="#linearGradient4"
       id="linearGradient7"
       gradientUnits="userSpaceOnUse"
       gradientTransform="matrix(-0.24055874,0.3272204,-0.3272204,-0.24055874,520.76868,-67.224058)"
       x1="354.6375"
       y1="66.876458"
       x2="449.97174"
       y2="66.876458" /><linearGradient
       inkscape:collect="always"
       xlink:href="#linearGradient4"
       id="linearGradient8"
       gradientUnits="userSpaceOnUse"
       gradientTransform="matrix(-0.18579867,0.11983129,-0.11983129,-0.18579867,543.78813,40.031029)"
       x1="305.5907"
       y1="66.876457"
       x2="449.97174"
       y2="66.876458" /><linearGradient
       inkscape:collect="always"
       xlink:href="#linearGradient9"
       id="linearGradient10"
       x1="49.905097"
       y1="276.68041"
       x2="101.9228"
       y2="276.68041"
       gradientUnits="userSpaceOnUse"
       gradientTransform="translate(-14.445525,-15.312256)" /><linearGradient
       inkscape:collect="always"
       xlink:href="#linearGradient4"
       id="linearGradient13"
       gradientUnits="userSpaceOnUse"
       gradientTransform="matrix(0.10150163,0.19641309,-0.19641309,0.10150163,301.8816,92.188915)"
       x1="-12.757162"
       y1="66.876404"
       x2="449.97174"
       y2="66.876458" /><linearGradient
       inkscape:collect="always"
       xlink:href="#linearGradient4"
       id="linearGradient3"
       gradientUnits="userSpaceOnUse"
       gradientTransform="matrix(0.10150163,0.19641309,-0.19641309,0.10150163,301.8816,92.188915)"
       x1="-12.757162"
       y1="66.876404"
       x2="449.97174"
       y2="66.876458" /></defs><g
     inkscape:label="Layer 1"
     inkscape:groupmode="layer"
     id="layer1"><rect
       style="fill:#01030d;stroke-width:0.79375;stroke-linejoin:round;fill-opacity:1"
       id="rect1"
       width="508"
       height="317.5"
       x="0"
       y="0" /><path
       id="path1"
       style="fill:url(#linearGradient5);stroke-width:0.79375;stroke-linejoin:round"
       d="m 411.68426,100.512 51.74498,-68.790333 -65.98638,55.276131 a 9.8164501,9.8164501 0 0 0 0.36359,13.877802 9.8164501,9.8164501 0 0 0 13.87781,-0.3636 z" /><path
       id="path3"
       style="fill:url(#linearGradient10);stroke-width:0.79375;stroke-linejoin:round"
       d="m 86.198755,288.80558 -50.739183,-69.53553 33.663306,79.22396 a 9.8164501,9.8164501 0 0 0 13.382151,3.69373 9.8164501,9.8164501 0 0 0 3.693726,-13.38216 z" /><path
       id="path7"
       style="fill:url(#linearGradient7);stroke-width:0.322366;stroke-linejoin:round"
       d="m 396.21429,63.077452 17.3599,-30.344598 -23.78418,25.62173 a 3.9867564,3.9867564 0 0 0 0.8507,5.573579 3.9867564,3.9867564 0 0 0 5.57358,-0.850711 z" /><path
       id="path8"
       style="fill:url(#linearGradient8);stroke-width:0.17549;stroke-linejoin:round"
       d="m 455.1703,82.173732 23.82559,-17.948931 -26.17822,14.301171 c -1.00731,0.64966 -1.29724,1.99289 -0.64758,3.0002 0.64966,1.00731 1.99291,1.29723 3.00021,0.64756 z"
       sodipodi:nodetypes="cccsc" /><text
       xml:space="preserve"
       transform="scale(0.26458333)"
       id="text2"
       style="font-size:13.3333px;line-height:1.8;font-family:'JetBrains Mono';-inkscape-font-specification:'JetBrains Mono';text-align:end;text-decoration-color:#000000;letter-spacing:0px;writing-mode:lr-tb;direction:ltr;white-space:pre;shape-inside:url(#rect2);display:inline;fill:#22d3ee;stroke-linejoin:round" /><g
       id="g1"
       transform="translate(0,16.714343)"><path
         id="path13"
         style="fill:url(#linearGradient3);stroke-width:0.17549;stroke-linejoin:round"
         d="M 335.35075,184.43285 287.45133,96.471305 331.4946,186.42562 c 0.55028,1.06485 1.85961,1.48199 2.92446,0.9317 1.06486,-0.55028 1.48199,-1.85962 0.93169,-2.92447 z"
         sodipodi:nodetypes="cccsc" /><path
         d="m 105.07928,163.10129 v -31.4478 h 9.47655 l 5.19206,14.6475 q 0.31658,0.99198 0.75981,2.44828 0.44322,1.43521 0.90755,3.01814 0.46433,1.56184 0.84424,2.99704 0.40101,1.4352 0.65428,2.38497 h -1.62515 q 0.25327,-0.94977 0.63317,-2.38497 0.40102,-1.4352 0.86535,-2.99704 0.46433,-1.58294 0.88644,-3.01814 0.44323,-1.45631 0.73871,-2.44828 l 5.12874,-14.6475 h 9.47655 v 31.4478 h -6.37398 v -14.94298 q 0,-1.0553 0.0422,-2.5116 0.0422,-1.45631 0.0844,-3.10257 0.0422,-1.66737 0.0844,-3.35584 0.0422,-1.70958 0.0633,-3.2292 h 0.78092 q -0.48544,1.66736 -1.01308,3.41915 -0.50654,1.75179 -0.99198,3.39805 -0.48544,1.64627 -0.92866,3.03926 -0.42212,1.37188 -0.73871,2.34275 l -5.31869,14.94298 h -5.27647 l -5.38201,-14.94298 q -0.31659,-0.97087 -0.75981,-2.34275 -0.44323,-1.39299 -0.94977,-3.03926 -0.48543,-1.64626 -1.03419,-3.39805 -0.52765,-1.75179 -1.03419,-3.41915 h 0.92866 q 0.0211,1.51962 0.0633,3.2292 0.0422,1.68847 0.0844,3.35584 0.0422,1.64626 0.0633,3.10257 0.0422,1.45631 0.0422,2.5116 v 14.94298 z m 48.67022,0.50655 q -3.37694,0 -5.88855,-1.47742 -2.49049,-1.49852 -3.88348,-4.13676 -1.37189,-2.63823 -1.37189,-6.01518 0,-3.41916 1.39299,-6.03629 1.4141,-2.63824 3.88349,-4.13676 2.46939,-1.49853 5.65638,-1.49853 2.46939,0 4.47446,0.84425 2.00506,0.82312 3.46136,2.38497 1.45631,1.54073 2.23723,3.65132 0.80203,2.11059 0.80203,4.66441 v 1.66736 H 144.8217 v -3.96791 h 16.69478 l -2.80709,0.94977 q 0,-1.68848 -0.61207,-2.91262 -0.61207,-1.22414 -1.75179,-1.87842 -1.11861,-0.67539 -2.68045,-0.67539 -1.54073,0 -2.65935,0.67539 -1.11861,0.65428 -1.73068,1.87842 -0.61207,1.22414 -0.61207,2.91262 v 2.70155 q 0,1.73069 0.61207,3.03925 0.63318,1.28746 1.81511,2.00507 1.18193,0.69649 2.8493,0.69649 1.22414,0 2.1528,-0.33769 0.94976,-0.3588 1.58294,-0.99198 0.65428,-0.65429 0.92866,-1.51963 h 5.67749 q -0.40101,2.21611 -1.87843,3.90459 -1.47741,1.68847 -3.71464,2.65934 -2.23722,0.94977 -4.93878,0.94978 z m 26.91003,-22.79438 v 4.87546 h -14.62639 v -4.87546 z m -10.78511,-6.07851 h 6.22624 v 21.48581 q 0,1.11861 0.44322,1.56184 0.46433,0.44322 1.73069,0.44322 0.52764,0 1.24524,0 0.73871,0 1.13972,0 v 4.87546 q -0.56986,0 -1.58294,0 -1.01308,0 -2.04727,0 -3.67243,0 -5.42422,-1.4352 -1.73068,-1.4352 -1.73068,-4.47445 z m 23.77365,28.87289 q -3.37694,0 -5.88855,-1.47742 -2.49049,-1.49852 -3.88348,-4.13676 -1.37189,-2.63823 -1.37189,-6.01518 0,-3.41916 1.39299,-6.03629 1.4141,-2.63824 3.88349,-4.13676 2.46939,-1.49852 5.65638,-1.49852 2.4694,0 4.47446,0.84424 2.00506,0.82313 3.46137,2.38497 1.4563,1.54073 2.23722,3.65132 0.80203,2.11059 0.80203,4.66441 v 1.66736 h -19.69182 v -3.96791 h 16.69478 l -2.80709,0.94977 q 0,-1.68848 -0.61207,-2.91262 -0.61207,-1.22414 -1.75179,-1.87842 -1.11861,-0.67539 -2.68045,-0.67539 -1.54073,0 -2.65934,0.67539 -1.11862,0.65428 -1.73069,1.87842 -0.61207,1.22414 -0.61207,2.91262 v 2.70155 q 0,1.73069 0.61207,3.03925 0.63318,1.28746 1.81511,2.00507 1.18193,0.69649 2.8493,0.69649 1.22414,0 2.1528,-0.33769 0.94976,-0.3588 1.58294,-0.99198 0.65429,-0.65429 0.92866,-1.51963 h 5.67749 q -0.40101,2.21612 -1.87842,3.9046 -1.47742,1.68847 -3.71464,2.65934 -2.23723,0.94977 -4.93879,0.94977 z m 24.44065,0 q -3.35584,0 -5.90966,-1.45631 -2.55381,-1.45631 -3.98901,-4.07344 -1.4141,-2.61713 -1.4141,-6.09961 0,-3.50358 1.4141,-6.12071 1.4352,-2.61714 3.98901,-4.07344 2.55382,-1.47742 5.90966,-1.47742 3.39805,0 5.93076,1.47742 2.55381,1.4563 3.96791,4.07344 1.4352,2.61713 1.4352,6.12071 0,3.48248 -1.4352,6.09961 -1.4141,2.61713 -3.96791,4.07344 -2.53271,1.45631 -5.93076,1.45631 z m 0,-5.04432 q 1.51962,0 2.65934,-0.78091 1.13972,-0.80203 1.7729,-2.27944 0.63318,-1.47742 0.63318,-3.52469 0,-2.08948 -0.63318,-3.5669 -0.63318,-1.47741 -1.7729,-2.25833 -1.13972,-0.80202 -2.65934,-0.80202 -1.49852,0 -2.63824,0.80202 -1.13972,0.78092 -1.7729,2.25833 -0.63317,1.47742 -0.63317,3.5669 0,2.06838 0.63317,3.54579 0.63318,1.45631 1.7729,2.25834 1.13972,0.78091 2.63824,0.78091 z m 14.75303,4.53777 v -22.28783 h 5.99408 v 3.79906 h 0.0633 q 0.61207,-2.00506 1.92064,-2.97593 1.30857,-0.97088 3.52469,-0.97088 0.54875,0 0.99198,0.0211 0.46433,0 0.84423,0.0211 v 5.29759 q -0.33769,-0.0211 -1.11861,-0.0633 -0.75981,-0.0422 -1.56184,-0.0422 -1.26635,0 -2.27944,0.59095 -1.01308,0.56987 -1.58294,1.70958 -0.56986,1.13972 -0.56986,2.82819 v 12.07258 z m 34.65589,0.54876 q -2.8915,0 -5.14984,-0.88645 -2.25833,-0.90755 -3.60911,-2.59603 -1.35077,-1.68847 -1.56183,-4.07344 h 6.12071 q 0.16885,1.45631 1.22414,2.27944 1.0553,0.82312 2.87041,0.82312 1.73068,0 2.70155,-0.65428 0.99198,-0.65429 0.99198,-1.68847 0,-0.88644 -0.75981,-1.43521 -0.73871,-0.54875 -2.11059,-0.80202 l -3.9046,-0.75981 q -3.25031,-0.63318 -4.93878,-2.27943 -1.68847,-1.64627 -1.68847,-4.22118 0,-2.1106 1.13972,-3.69355 1.16082,-1.58294 3.27141,-2.44828 2.1317,-0.86534 5.04431,-0.86534 2.89151,0 5.04432,0.92866 2.1528,0.90755 3.35584,2.59602 1.22414,1.68847 1.28746,4.01012 h -5.76192 q -0.0211,-1.35077 -1.05529,-2.23722 -1.03419,-0.88645 -2.70156,-0.88645 -1.60405,0 -2.5116,0.69649 -0.90756,0.67539 -0.90756,1.66738 0,0.86534 0.71761,1.41409 0.7176,0.54876 1.98395,0.82313 l 4.22118,0.82313 q 3.37695,0.65428 4.95989,2.1528 1.60405,1.47741 1.60405,3.94681 0,2.21612 -1.26635,3.88348 -1.24525,1.64626 -3.48248,2.57492 -2.21612,0.90756 -5.12874,0.90757 z m 19.43855,-12.93792 v 12.38916 h -6.22624 v -31.4478 h 6.22624 v 14.96409 h -1.16082 q 1.05529,-2.95483 3.01814,-4.60109 1.96285,-1.66736 5.0021,-1.66736 2.38497,0 4.13676,1.03418 1.75179,1.01309 2.70156,2.97594 0.97087,1.96285 0.97087,4.79104 v 13.951 h -6.20514 v -12.81128 q 0,-2.23723 -1.0764,-3.39805 -1.05529,-1.18193 -3.01814,-1.18193 -1.28746,0 -2.27944,0.52764 -0.99198,0.52765 -1.54073,1.64626 -0.54876,1.09751 -0.54876,2.8282 z m 29.42164,12.89571 q -3.35584,0 -5.90965,-1.45631 -2.55382,-1.45631 -3.98902,-4.07344 -1.4141,-2.61713 -1.4141,-6.09961 0,-3.50358 1.4141,-6.12071 1.4352,-2.61714 3.98902,-4.07344 2.55381,-1.47742 5.90965,-1.47742 3.39805,0 5.93076,1.47742 2.55381,1.4563 3.96791,4.07344 1.4352,2.61713 1.4352,6.12071 0,3.48248 -1.4352,6.09961 -1.4141,2.61713 -3.96791,4.07344 -2.53271,1.45631 -5.93076,1.45631 z m 0,-5.04432 q 1.51962,0 2.65934,-0.78091 1.13972,-0.80203 1.7729,-2.27944 0.63318,-1.47742 0.63318,-3.52469 0,-2.08948 -0.63318,-3.5669 -0.63318,-1.47741 -1.7729,-2.25833 -1.13972,-0.80202 -2.65934,-0.80202 -1.49852,0 -2.63824,0.80202 -1.13972,0.78092 -1.7729,2.25833 -0.63317,1.47742 -0.63317,3.5669 0,2.06838 0.63317,3.54579 0.63318,1.45631 1.7729,2.25834 1.13972,0.78091 2.63824,0.78091 z m 19.08353,4.53777 -6.85942,-22.28783 h 6.50062 l 2.04728,7.78808 q 0.61207,2.38496 1.16082,4.95988 0.56986,2.55382 1.13972,5.04432 h -0.84424 q 0.61207,-2.4905 1.22415,-5.04432 0.63317,-2.57492 1.26635,-4.95988 l 2.1317,-7.78808 h 5.61417 l 2.11059,7.78808 q 0.63318,2.38496 1.24525,4.95988 0.61207,2.55382 1.22414,5.04432 h -0.84424 q 0.56986,-2.4905 1.11862,-5.04432 0.56986,-2.55381 1.13972,-4.95988 l 2.02616,-7.78808 h 6.60615 l -6.85942,22.28783 h -6.4373 l -2.59603,-8.86449 q -0.3588,-1.28746 -0.7176,-2.63824 -0.33769,-1.35077 -0.69649,-2.72265 -0.3377,-1.39299 -0.6965,-2.74378 h 1.16083 q -0.3588,1.35078 -0.7176,2.74378 -0.3377,1.37189 -0.6965,2.72265 -0.3588,1.35078 -0.7387,2.63824 l -2.61714,8.86449 z m 40.0417,0.50655 q -3.37694,0 -5.88854,-1.47742 -2.4905,-1.49852 -3.88349,-4.13676 -1.37188,-2.63823 -1.37188,-6.01518 0,-3.41916 1.39299,-6.03629 1.41409,-2.63824 3.88348,-4.13676 2.46939,-1.49852 5.65639,-1.49852 2.46939,0 4.47445,0.84424 2.00506,0.82313 3.46137,2.38497 1.4563,1.54073 2.23722,3.65132 0.80203,2.11059 0.80203,4.66441 v 1.66736 h -19.69181 v -3.96791 h 16.69477 l -2.80709,0.94977 q 0,-1.68848 -0.61207,-2.91262 -0.61207,-1.22414 -1.75179,-1.87842 -1.11861,-0.67539 -2.68045,-0.67539 -1.54073,0 -2.65934,0.67539 -1.11862,0.65428 -1.73069,1.87842 -0.61207,1.22414 -0.61207,2.91262 v 2.70155 q 0,1.73069 0.61207,3.03925 0.63318,1.28746 1.81511,2.00507 1.18193,0.69649 2.8493,0.69649 1.22414,0 2.1528,-0.33769 0.94977,-0.3588 1.58294,-0.99198 0.65429,-0.65429 0.92866,-1.51963 h 5.67749 q -0.40101,2.21612 -1.87842,3.9046 -1.47742,1.68847 -3.71464,2.65934 -2.23723,0.94977 -4.93879,0.94977 z m 14.09875,-0.50655 v -22.28783 h 5.99407 v 3.79906 h 0.0633 q 0.61207,-2.00506 1.92064,-2.97593 1.30857,-0.97088 3.52469,-0.97088 0.54875,0 0.99197,0.0211 0.46433,0 0.84424,0.0211 v 5.29759 q -0.33769,-0.0211 -1.11861,-0.0633 -0.75982,-0.0422 -1.56184,-0.0422 -1.26635,0 -2.27944,0.59095 -1.01308,0.56987 -1.58294,1.70958 -0.56986,1.13972 -0.56986,2.82819 v 12.07258 z"
         id="text13"
         style="font-weight:bold;font-size:43.2249px;font-family:Inter;-inkscape-font-specification:'Inter Bold';letter-spacing:0px;white-space:pre;fill:#ffffff;stroke-width:1.62093;stroke-linejoin:round"
         aria-label="Meteor shower" /><path
         style="fill:url(#linearGradient13);stroke-width:0.17549;stroke-linejoin:round"
         d="m 320.19081,156.59386 c -0.33186,0.47551 -0.72292,0.87143 -1.17357,1.18856 -0.38622,0.26462 -0.80512,0.46208 -1.25677,0.5922 l 2.31303,4.72426 c 0.78661,-0.23464 1.52464,-0.55036 2.21486,-0.94723 0.23879,-0.13618 0.47016,-0.2801 0.69401,-0.4315 z"
         id="path17" /></g></g></svg>
